<svg xmlns="http://www.w3.org/2000/svg" width="1600" height="900" viewBox="0 0 1600 900" role="img" aria-hidden="true">
  <defs>
    <linearGradient id="bg" x1="0%" y1="0%" x2="100%" y2="100%">
      <stop offset="0%" stop-color="#eefaff"/>
      <stop offset="55%" stop-color="#ffffff"/>
      <stop offset="100%" stop-color="#f4fbff"/>
    </linearGradient>
    <linearGradient id="primaryOrb" x1="20%" y1="20%" x2="85%" y2="85%">
      <stop offset="0%" stop-color="#14a2ef"/>
      <stop offset="100%" stop-color="#0970c3"/>
    </linearGradient>
    <linearGradient id="accentOrb" x1="0%" y1="0%" x2="100%" y2="100%">
      <stop offset="0%" stop-color="#8ad128"/>
      <stop offset="100%" stop-color="#63a60b"/>
    </linearGradient>
    <linearGradient id="line" x1="0%" y1="0%" x2="100%" y2="0%">
      <stop offset="0%" stop-color="#14a2ef"/>
      <stop offset="100%" stop-color="#8ad128"/>
    </linearGradient>
    <filter id="shadowSoft" x="-10%" y="-10%" width="120%" height="120%">
      <feDropShadow dx="0" dy="18" stdDeviation="22" flood-color="#98b7cc" flood-opacity="0.18"/>
    </filter>
  </defs>
  <rect width="1600" height="900" fill="url(#bg)"/>
  <g opacity="0.55">
    <circle cx="1420" cy="110" r="210" fill="#d8efff"/>
    <circle cx="190" cy="770" r="250" fill="#ebf7da"/>
  </g>
  <g filter="url(#shadowSoft)">
    <rect x="128" y="106" width="1344" height="688" rx="54" fill="rgba(255,255,255,0.42)"/>
  </g>
  <rect x="178" y="154" width="1244" height="590" rx="42" fill="rgba(255,255,255,0.92)" stroke="rgba(17,52,76,0.08)" stroke-width="2"/><circle cx="800" cy="450" r="168" fill="url(#primaryOrb)" opacity="0.96"/><circle cx="800" cy="450" r="98" fill="rgba(255,255,255,0.92)"/><circle cx="800" cy="450" r="44" fill="url(#accentOrb)"/><circle cx="430" cy="252" r="74" fill="rgba(255,255,255,0.88)" stroke="rgba(17,52,76,0.08)" stroke-width="2"/><circle cx="430" cy="252" r="31" fill="url(#primaryOrb)" opacity="0.88"/><circle cx="1170" cy="252" r="74" fill="rgba(255,255,255,0.88)" stroke="rgba(17,52,76,0.08)" stroke-width="2"/><circle cx="1170" cy="252" r="31" fill="url(#primaryOrb)" opacity="0.88"/><circle cx="320" cy="566" r="82" fill="rgba(255,255,255,0.88)" stroke="rgba(17,52,76,0.08)" stroke-width="2"/><circle cx="320" cy="566" r="34" fill="url(#primaryOrb)" opacity="0.88"/><circle cx="1280" cy="566" r="82" fill="rgba(255,255,255,0.88)" stroke="rgba(17,52,76,0.08)" stroke-width="2"/><circle cx="1280" cy="566" r="34" fill="url(#primaryOrb)" opacity="0.88"/><circle cx="800" cy="196" r="68" fill="rgba(255,255,255,0.88)" stroke="rgba(17,52,76,0.08)" stroke-width="2"/><circle cx="800" cy="196" r="28" fill="url(#primaryOrb)" opacity="0.88"/><circle cx="800" cy="712" r="68" fill="rgba(255,255,255,0.88)" stroke="rgba(17,52,76,0.08)" stroke-width="2"/><circle cx="800" cy="712" r="28" fill="url(#primaryOrb)" opacity="0.88"/><path d="M490 292 Q590 313 690 390" fill="none" stroke="url(#line)" stroke-width="10" stroke-linecap="round"/><path d="M1110 292 Q1010 313 910 390" fill="none" stroke="url(#line)" stroke-width="10" stroke-linecap="round"/><path d="M398 550 Q520 488 642 482" fill="none" stroke="url(#line)" stroke-width="10" stroke-linecap="round"/><path d="M1202 550 Q1080 488 958 482" fill="none" stroke="url(#line)" stroke-width="10" stroke-linecap="round"/><path d="M800 264 Q800 276 800 344" fill="none" stroke="url(#line)" stroke-width="10" stroke-linecap="round"/><path d="M800 644 Q800 572 800 556" fill="none" stroke="url(#line)" stroke-width="10" stroke-linecap="round"/>
</svg>
