<svg xmlns="http://www.w3.org/2000/svg" width="1600" height="900" viewBox="0 0 1600 900" role="img" aria-hidden="true">
  <defs>
    <linearGradient id="bg" x1="0%" y1="0%" x2="100%" y2="100%">
      <stop offset="0%" stop-color="#112637"/>
      <stop offset="55%" stop-color="#0d1e2c"/>
      <stop offset="100%" stop-color="#08131c"/>
    </linearGradient>
    <linearGradient id="primaryOrb" x1="20%" y1="20%" x2="85%" y2="85%">
      <stop offset="0%" stop-color="#2e9ae8"/>
      <stop offset="100%" stop-color="#0d72c8"/>
    </linearGradient>
    <linearGradient id="accentOrb" x1="0%" y1="0%" x2="100%" y2="100%">
      <stop offset="0%" stop-color="#8acd2f"/>
      <stop offset="100%" stop-color="#63a60b"/>
    </linearGradient>
    <linearGradient id="line" x1="0%" y1="0%" x2="100%" y2="0%">
      <stop offset="0%" stop-color="#2e9ae8"/>
      <stop offset="100%" stop-color="#8acd2f"/>
    </linearGradient>
    <filter id="shadowSoft" x="-10%" y="-10%" width="120%" height="120%">
      <feDropShadow dx="0" dy="18" stdDeviation="22" flood-color="#02090f" flood-opacity="0.46"/>
    </filter>
  </defs>
  <rect width="1600" height="900" fill="url(#bg)"/>
  <g opacity="0.55">
    <circle cx="1420" cy="110" r="210" fill="rgba(26,62,88,0.38)"/>
    <circle cx="190" cy="770" r="250" fill="rgba(38,72,34,0.34)"/>
  </g>
  <g filter="url(#shadowSoft)">
    <rect x="128" y="106" width="1344" height="688" rx="54" fill="rgba(8,19,28,0.72)"/>
  </g>
  <rect x="180" y="180" width="900" height="520" rx="42" fill="rgba(255,255,255,0.92)" stroke="rgba(168,195,216,0.1)" stroke-width="2"/><rect x="1014" y="144" width="254" height="530" rx="46" fill="rgba(18,40,58,0.94)" stroke="rgba(168,195,216,0.1)" stroke-width="2"/><rect x="1146" y="248" width="244" height="420" rx="36" fill="rgba(17,35,50,0.9)" stroke="rgba(168,195,216,0.1)" stroke-width="2"/><rect x="242" y="246" width="776" height="54" rx="20" fill="rgba(236,246,252,0.96)"/><rect x="242" y="334" width="344" height="286" rx="30" fill="rgba(15,34,49,0.94)" stroke="rgba(168,195,216,0.1)" stroke-width="2"/><rect x="620" y="334" width="344" height="136" rx="30" fill="rgba(14,40,60,0.92)" stroke="rgba(168,195,216,0.1)" stroke-width="2"/><rect x="620" y="492" width="344" height="128" rx="30" fill="rgba(28,57,29,0.9)" stroke="rgba(168,195,216,0.1)" stroke-width="2"/><rect x="1090" y="214" width="102" height="18" rx="9" fill="rgba(168,195,216,0.18)"/><circle cx="1206" cy="223" r="6" fill="rgba(17,52,76,0.2)"/><circle cx="1142" cy="456" r="52" fill="url(#primaryOrb)"/><rect x="1072" y="554" width="122" height="16" rx="8" fill="rgba(168,195,216,0.16)"/><rect x="1072" y="588" width="94" height="12" rx="6" fill="rgba(120,197,21,0.18)"/><rect x="292" y="378" width="240" height="18" rx="9" fill="rgba(168,195,216,0.16)"/><rect x="292" y="434" width="240" height="18" rx="9" fill="rgba(168,195,216,0.16)"/><rect x="292" y="490" width="240" height="18" rx="9" fill="rgba(168,195,216,0.16)"/><rect x="670" y="376" width="204" height="18" rx="9" fill="rgba(5,150,239,0.18)"/><rect x="670" y="530" width="194" height="18" rx="9" fill="rgba(5,150,239,0.18)"/><rect x="1086" y="316" width="188" height="18" rx="9" fill="rgba(5,150,239,0.18)"/>
</svg>
