<svg xmlns="http://www.w3.org/2000/svg" width="1600" height="900" viewBox="0 0 1600 900" role="img" aria-hidden="true">
  <defs>
    <linearGradient id="bg" x1="0%" y1="0%" x2="100%" y2="100%">
      <stop offset="0%" stop-color="#112637"/>
      <stop offset="55%" stop-color="#0d1e2c"/>
      <stop offset="100%" stop-color="#08131c"/>
    </linearGradient>
    <linearGradient id="primaryOrb" x1="20%" y1="20%" x2="85%" y2="85%">
      <stop offset="0%" stop-color="#21a3f6"/>
      <stop offset="100%" stop-color="#0a6bbd"/>
    </linearGradient>
    <linearGradient id="accentOrb" x1="0%" y1="0%" x2="100%" y2="100%">
      <stop offset="0%" stop-color="#9ed93b"/>
      <stop offset="100%" stop-color="#63a60b"/>
    </linearGradient>
    <linearGradient id="line" x1="0%" y1="0%" x2="100%" y2="0%">
      <stop offset="0%" stop-color="#21a3f6"/>
      <stop offset="100%" stop-color="#9ed93b"/>
    </linearGradient>
    <filter id="shadowSoft" x="-10%" y="-10%" width="120%" height="120%">
      <feDropShadow dx="0" dy="18" stdDeviation="22" flood-color="#02090f" flood-opacity="0.46"/>
    </filter>
  </defs>
  <rect width="1600" height="900" fill="url(#bg)"/>
  <g opacity="0.55">
    <circle cx="1420" cy="110" r="210" fill="rgba(26,62,88,0.38)"/>
    <circle cx="190" cy="770" r="250" fill="rgba(38,72,34,0.34)"/>
  </g>
  <g filter="url(#shadowSoft)">
    <rect x="128" y="106" width="1344" height="688" rx="54" fill="rgba(8,19,28,0.72)"/>
  </g>
  <rect x="188" y="144" width="1224" height="612" rx="44" fill="rgba(255,255,255,0.92)" stroke="rgba(168,195,216,0.1)" stroke-width="2"/><rect x="282" y="210" width="658" height="478" rx="28" fill="rgba(18,40,58,0.94)" stroke="rgba(168,195,216,0.1)" stroke-width="2"/><rect x="994" y="210" width="326" height="230" rx="28" fill="rgba(17,39,56,0.92)" stroke="rgba(168,195,216,0.1)" stroke-width="2"/><rect x="994" y="472" width="326" height="216" rx="28" fill="rgba(15,34,49,0.94)" stroke="rgba(168,195,216,0.1)" stroke-width="2"/><rect x="350" y="276" width="522" height="296" rx="18" fill="rgba(5,150,239,0.08)" stroke="rgba(168,195,216,0.12)" stroke-dasharray="14 12" stroke-width="3"/><path d="M350 424h522M610 276v296" stroke="rgba(168,195,216,0.1)" stroke-width="3"/><rect x="364" y="302" width="250" height="24" rx="12" fill="url(#primaryOrb)"/><rect x="364" y="354" width="420" height="18" rx="9" fill="rgba(168,195,216,0.16)"/><rect x="364" y="396" width="382" height="18" rx="9" fill="rgba(168,195,216,0.14)"/><rect x="364" y="438" width="278" height="18" rx="9" fill="rgba(120,197,21,0.18)"/><rect x="648" y="474" width="168" height="72" rx="18" fill="rgba(28,57,29,0.9)" stroke="rgba(168,195,216,0.1)" stroke-width="2"/><rect x="1028" y="252" width="258" height="36" rx="18" fill="url(#primaryOrb)" opacity="0.9"/><circle cx="1062" cy="358" r="24" fill="rgba(168,195,216,0.16)"/><circle cx="1120" cy="358" r="24" fill="rgba(5,150,239,0.18)"/><circle cx="1178" cy="358" r="24" fill="rgba(120,197,21,0.2)"/><circle cx="1236" cy="358" r="24" fill="rgba(168,195,216,0.12)"/><rect x="1026" y="516" width="210" height="16" rx="8" fill="rgba(168,195,216,0.16)"/><rect x="1026" y="556" width="182" height="16" rx="8" fill="rgba(5,150,239,0.16)"/><rect x="1026" y="596" width="224" height="16" rx="8" fill="rgba(168,195,216,0.16)"/><rect x="1026" y="636" width="166" height="16" rx="8" fill="rgba(5,150,239,0.16)"/>
</svg>
