<svg xmlns="http://www.w3.org/2000/svg" width="1600" height="900" viewBox="0 0 1600 900" role="img" aria-hidden="true">
  <defs>
    <linearGradient id="bg" x1="0%" y1="0%" x2="100%" y2="100%">
      <stop offset="0%" stop-color="#f1faec"/>
      <stop offset="55%" stop-color="#ffffff"/>
      <stop offset="100%" stop-color="#f4fbff"/>
    </linearGradient>
    <linearGradient id="primaryOrb" x1="20%" y1="20%" x2="85%" y2="85%">
      <stop offset="0%" stop-color="#1da0ec"/>
      <stop offset="100%" stop-color="#0a70bf"/>
    </linearGradient>
    <linearGradient id="accentOrb" x1="0%" y1="0%" x2="100%" y2="100%">
      <stop offset="0%" stop-color="#8bce2c"/>
      <stop offset="100%" stop-color="#63a60b"/>
    </linearGradient>
    <linearGradient id="line" x1="0%" y1="0%" x2="100%" y2="0%">
      <stop offset="0%" stop-color="#1da0ec"/>
      <stop offset="100%" stop-color="#8bce2c"/>
    </linearGradient>
    <filter id="shadowSoft" x="-10%" y="-10%" width="120%" height="120%">
      <feDropShadow dx="0" dy="18" stdDeviation="22" flood-color="#98b7cc" flood-opacity="0.18"/>
    </filter>
  </defs>
  <rect width="1600" height="900" fill="url(#bg)"/>
  <g opacity="0.55">
    <circle cx="1420" cy="110" r="210" fill="#d8efff"/>
    <circle cx="190" cy="770" r="250" fill="#ebf7da"/>
  </g>
  <g filter="url(#shadowSoft)">
    <rect x="128" y="106" width="1344" height="688" rx="54" fill="rgba(255,255,255,0.42)"/>
  </g>
  <rect x="186" y="158" width="1228" height="584" rx="42" fill="rgba(255,255,255,0.92)" stroke="rgba(17,52,76,0.08)" stroke-width="2"/><rect x="246" y="224" width="456" height="452" rx="34" fill="rgba(255,255,255,0.98)" stroke="rgba(17,52,76,0.08)" stroke-width="2"/><rect x="742" y="224" width="612" height="144" rx="30" fill="rgba(236,248,255,0.96)" stroke="rgba(17,52,76,0.08)" stroke-width="2"/><rect x="742" y="396" width="612" height="128" rx="30" fill="rgba(255,255,255,0.98)" stroke="rgba(17,52,76,0.08)" stroke-width="2"/><rect x="742" y="552" width="286" height="124" rx="30" fill="rgba(241,250,233,0.96)" stroke="rgba(17,52,76,0.08)" stroke-width="2"/><rect x="1068" y="552" width="286" height="124" rx="30" fill="rgba(247,251,253,0.96)" stroke="rgba(17,52,76,0.08)" stroke-width="2"/><circle cx="474" cy="376" r="118" fill="url(#primaryOrb)" opacity="0.92"/><path d="M422 348h104M422 388h104M474 296v160" fill="none" stroke="rgba(255,255,255,0.92)" stroke-width="16" stroke-linecap="round"/><rect x="800" y="462" width="442" height="16" rx="8" fill="rgba(17,52,76,0.1)"/><rect x="800" y="462" width="286" height="16" rx="8" fill="url(#line)"/><circle cx="878" cy="614" r="38" fill="url(#accentOrb)"/><circle cx="1204" cy="614" r="38" fill="url(#primaryOrb)"/><rect x="800" y="272" width="260" height="18" rx="9" fill="rgba(17,52,76,0.14)"/><rect x="800" y="314" width="330" height="18" rx="9" fill="rgba(17,52,76,0.14)"/><rect x="800" y="444" width="280" height="18" rx="9" fill="rgba(17,52,76,0.14)"/><rect x="800" y="486" width="248" height="18" rx="9" fill="rgba(17,52,76,0.14)"/>
</svg>
