<svg xmlns="http://www.w3.org/2000/svg" width="1600" height="900" viewBox="0 0 1600 900" role="img" aria-hidden="true">
  <defs>
    <linearGradient id="bg" x1="0%" y1="0%" x2="100%" y2="100%">
      <stop offset="0%" stop-color="#112637"/>
      <stop offset="55%" stop-color="#0d1e2c"/>
      <stop offset="100%" stop-color="#08131c"/>
    </linearGradient>
    <linearGradient id="primaryOrb" x1="20%" y1="20%" x2="85%" y2="85%">
      <stop offset="0%" stop-color="#0596ef"/>
      <stop offset="100%" stop-color="#0c79d6"/>
    </linearGradient>
    <linearGradient id="accentOrb" x1="0%" y1="0%" x2="100%" y2="100%">
      <stop offset="0%" stop-color="#78c515"/>
      <stop offset="100%" stop-color="#63a60b"/>
    </linearGradient>
    <linearGradient id="line" x1="0%" y1="0%" x2="100%" y2="0%">
      <stop offset="0%" stop-color="#0596ef"/>
      <stop offset="100%" stop-color="#78c515"/>
    </linearGradient>
    <filter id="shadowSoft" x="-10%" y="-10%" width="120%" height="120%">
      <feDropShadow dx="0" dy="18" stdDeviation="22" flood-color="#02090f" flood-opacity="0.46"/>
    </filter>
  </defs>
  <rect width="1600" height="900" fill="url(#bg)"/>
  <g opacity="0.55">
    <circle cx="1420" cy="110" r="210" fill="rgba(26,62,88,0.38)"/>
    <circle cx="190" cy="770" r="250" fill="rgba(38,72,34,0.34)"/>
  </g>
  <g filter="url(#shadowSoft)">
    <rect x="128" y="106" width="1344" height="688" rx="54" fill="rgba(8,19,28,0.72)"/>
  </g>
  <rect x="178" y="154" width="1244" height="590" rx="42" fill="rgba(255,255,255,0.92)" stroke="rgba(168,195,216,0.1)" stroke-width="2"/><circle cx="800" cy="450" r="210" fill="rgba(14,40,60,0.86)" stroke="rgba(168,195,216,0.1)" stroke-width="2"/><path d="M630 450h340M800 280v340" fill="none" stroke="rgba(168,195,216,0.1)" stroke-width="3"/><path d="M686 336c32 18 66 28 114 28s82-10 114-28M686 564c32-18 66-28 114-28s82 10 114 28" fill="none" stroke="rgba(168,195,216,0.1)" stroke-width="3"/><circle cx="800" cy="450" r="72" fill="url(#accentOrb)" opacity="0.92"/><rect x="430" y="238" width="188" height="140" rx="28" fill="rgba(16,36,52,0.92)" stroke="rgba(168,195,216,0.1)" stroke-width="2"/><circle cx="524" cy="290" r="34" fill="url(#primaryOrb)" opacity="0.92"/><rect x="466" y="338" width="116" height="16" rx="8" fill="rgba(168,195,216,0.16)"/><rect x="982" y="238" width="188" height="140" rx="28" fill="rgba(16,36,52,0.92)" stroke="rgba(168,195,216,0.1)" stroke-width="2"/><circle cx="1076" cy="290" r="34" fill="url(#primaryOrb)" opacity="0.92"/><rect x="1018" y="338" width="116" height="16" rx="8" fill="rgba(168,195,216,0.16)"/><rect x="354" y="522" width="188" height="140" rx="28" fill="rgba(16,36,52,0.92)" stroke="rgba(168,195,216,0.1)" stroke-width="2"/><circle cx="448" cy="574" r="34" fill="url(#primaryOrb)" opacity="0.92"/><rect x="390" y="622" width="116" height="16" rx="8" fill="rgba(168,195,216,0.16)"/><rect x="1058" y="522" width="188" height="140" rx="28" fill="rgba(16,36,52,0.92)" stroke="rgba(168,195,216,0.1)" stroke-width="2"/><circle cx="1152" cy="574" r="34" fill="url(#primaryOrb)" opacity="0.92"/><rect x="1094" y="622" width="116" height="16" rx="8" fill="rgba(168,195,216,0.16)"/><rect x="706" y="162" width="188" height="140" rx="28" fill="rgba(16,36,52,0.92)" stroke="rgba(168,195,216,0.1)" stroke-width="2"/><circle cx="800" cy="214" r="34" fill="url(#primaryOrb)" opacity="0.92"/><rect x="742" y="262" width="116" height="16" rx="8" fill="rgba(168,195,216,0.16)"/>
</svg>
