<svg xmlns="http://www.w3.org/2000/svg" width="1600" height="900" viewBox="0 0 1600 900" role="img" aria-hidden="true">
  <defs>
    <linearGradient id="bg" x1="0%" y1="0%" x2="100%" y2="100%">
      <stop offset="0%" stop-color="#effaf0"/>
      <stop offset="55%" stop-color="#ffffff"/>
      <stop offset="100%" stop-color="#f4fbff"/>
    </linearGradient>
    <linearGradient id="primaryOrb" x1="20%" y1="20%" x2="85%" y2="85%">
      <stop offset="0%" stop-color="#3c9ce7"/>
      <stop offset="100%" stop-color="#0f75c8"/>
    </linearGradient>
    <linearGradient id="accentOrb" x1="0%" y1="0%" x2="100%" y2="100%">
      <stop offset="0%" stop-color="#86c92e"/>
      <stop offset="100%" stop-color="#63a60b"/>
    </linearGradient>
    <linearGradient id="line" x1="0%" y1="0%" x2="100%" y2="0%">
      <stop offset="0%" stop-color="#3c9ce7"/>
      <stop offset="100%" stop-color="#86c92e"/>
    </linearGradient>
    <filter id="shadowSoft" x="-10%" y="-10%" width="120%" height="120%">
      <feDropShadow dx="0" dy="18" stdDeviation="22" flood-color="#98b7cc" flood-opacity="0.18"/>
    </filter>
  </defs>
  <rect width="1600" height="900" fill="url(#bg)"/>
  <g opacity="0.55">
    <circle cx="1420" cy="110" r="210" fill="#d8efff"/>
    <circle cx="190" cy="770" r="250" fill="#ebf7da"/>
  </g>
  <g filter="url(#shadowSoft)">
    <rect x="128" y="106" width="1344" height="688" rx="54" fill="rgba(255,255,255,0.42)"/>
  </g>
  <rect x="214" y="178" width="448" height="502" rx="44" fill="rgba(247,251,253,0.96)" stroke="rgba(17,52,76,0.08)" stroke-width="2"/><rect x="938" y="178" width="448" height="502" rx="44" fill="rgba(247,251,253,0.96)" stroke="rgba(17,52,76,0.08)" stroke-width="2"/><circle cx="800" cy="428" r="164" fill="url(#primaryOrb)" opacity="0.92"/><circle cx="800" cy="428" r="98" fill="rgba(255,255,255,0.92)"/><rect x="748" y="316" width="104" height="226" rx="48" fill="rgba(17,52,76,0.18)"/><circle cx="800" cy="312" r="56" fill="rgba(17,52,76,0.18)"/><path d="M722 654c44-30 112-46 160-46s116 16 160 46" fill="none" stroke="url(#line)" stroke-width="12" stroke-linecap="round"/><path d="M368 360c88 0 88 56 172 56" fill="none" stroke="url(#line)" stroke-width="10" stroke-linecap="round"/><path d="M1032 360c-88 0-88 56-172 56" fill="none" stroke="url(#line)" stroke-width="10" stroke-linecap="round"/><circle cx="316" cy="316" r="56" fill="url(#accentOrb)" opacity="0.92"/><rect x="224" y="404" width="184" height="16" rx="8" fill="rgba(17,52,76,0.14)"/><circle cx="316" cy="534" r="56" fill="url(#accentOrb)" opacity="0.92"/><rect x="224" y="622" width="184" height="16" rx="8" fill="rgba(17,52,76,0.14)"/><circle cx="1040" cy="316" r="56" fill="url(#accentOrb)" opacity="0.92"/><rect x="948" y="404" width="184" height="16" rx="8" fill="rgba(17,52,76,0.14)"/><circle cx="1040" cy="534" r="56" fill="url(#accentOrb)" opacity="0.92"/><rect x="948" y="622" width="184" height="16" rx="8" fill="rgba(17,52,76,0.14)"/>
</svg>
