<svg xmlns="http://www.w3.org/2000/svg" width="1600" height="900" viewBox="0 0 1600 900" role="img" aria-hidden="true">
  <defs>
    <linearGradient id="bg" x1="0%" y1="0%" x2="100%" y2="100%">
      <stop offset="0%" stop-color="#eefbff"/>
      <stop offset="55%" stop-color="#ffffff"/>
      <stop offset="100%" stop-color="#f4fbff"/>
    </linearGradient>
    <linearGradient id="primaryOrb" x1="20%" y1="20%" x2="85%" y2="85%">
      <stop offset="0%" stop-color="#37a6ef"/>
      <stop offset="100%" stop-color="#1176cc"/>
    </linearGradient>
    <linearGradient id="accentOrb" x1="0%" y1="0%" x2="100%" y2="100%">
      <stop offset="0%" stop-color="#6fbe14"/>
      <stop offset="100%" stop-color="#63a60b"/>
    </linearGradient>
    <linearGradient id="line" x1="0%" y1="0%" x2="100%" y2="0%">
      <stop offset="0%" stop-color="#37a6ef"/>
      <stop offset="100%" stop-color="#6fbe14"/>
    </linearGradient>
    <filter id="shadowSoft" x="-10%" y="-10%" width="120%" height="120%">
      <feDropShadow dx="0" dy="18" stdDeviation="22" flood-color="#98b7cc" flood-opacity="0.18"/>
    </filter>
  </defs>
  <rect width="1600" height="900" fill="url(#bg)"/>
  <g opacity="0.55">
    <circle cx="1420" cy="110" r="210" fill="#d8efff"/>
    <circle cx="190" cy="770" r="250" fill="#ebf7da"/>
  </g>
  <g filter="url(#shadowSoft)">
    <rect x="128" y="106" width="1344" height="688" rx="54" fill="rgba(255,255,255,0.42)"/>
  </g>
  <rect x="182" y="156" width="1244" height="588" rx="42" fill="rgba(255,255,255,0.92)" stroke="rgba(17,52,76,0.08)" stroke-width="2"/><rect x="248" y="226" width="332" height="206" rx="30" fill="rgba(236,248,255,0.96)" stroke="rgba(17,52,76,0.08)" stroke-width="2"/><rect x="616" y="226" width="372" height="206" rx="30" fill="rgba(255,255,255,0.98)" stroke="rgba(17,52,76,0.08)" stroke-width="2"/><rect x="1024" y="226" width="332" height="206" rx="30" fill="rgba(241,250,233,0.96)" stroke="rgba(17,52,76,0.08)" stroke-width="2"/><rect x="248" y="468" width="372" height="206" rx="30" fill="rgba(255,255,255,0.98)" stroke="rgba(17,52,76,0.08)" stroke-width="2"/><rect x="656" y="468" width="286" height="206" rx="30" fill="rgba(247,251,253,0.96)" stroke="rgba(17,52,76,0.08)" stroke-width="2"/><rect x="978" y="468" width="378" height="206" rx="30" fill="rgba(255,255,255,0.98)" stroke="rgba(17,52,76,0.08)" stroke-width="2"/><circle cx="798" cy="328" r="58" fill="url(#primaryOrb)"/><path d="M776 296l58 32-58 32z" fill="rgba(255,255,255,0.92)"/><path d="M296 570c42-42 78-42 120 0s78 42 120 0 78-42 120 0" fill="none" stroke="url(#line)" stroke-width="14" stroke-linecap="round"/><circle cx="1132" cy="330" r="54" fill="url(#accentOrb)" opacity="0.92"/><circle cx="1132" cy="570" r="54" fill="url(#accentOrb)" opacity="0.92"/>
</svg>
