<svg xmlns="http://www.w3.org/2000/svg" width="1600" height="900" viewBox="0 0 1600 900" role="img" aria-hidden="true">
  <defs>
    <linearGradient id="bg" x1="0%" y1="0%" x2="100%" y2="100%">
      <stop offset="0%" stop-color="#112637"/>
      <stop offset="55%" stop-color="#0d1e2c"/>
      <stop offset="100%" stop-color="#08131c"/>
    </linearGradient>
    <linearGradient id="primaryOrb" x1="20%" y1="20%" x2="85%" y2="85%">
      <stop offset="0%" stop-color="#37a6ef"/>
      <stop offset="100%" stop-color="#1176cc"/>
    </linearGradient>
    <linearGradient id="accentOrb" x1="0%" y1="0%" x2="100%" y2="100%">
      <stop offset="0%" stop-color="#6fbe14"/>
      <stop offset="100%" stop-color="#63a60b"/>
    </linearGradient>
    <linearGradient id="line" x1="0%" y1="0%" x2="100%" y2="0%">
      <stop offset="0%" stop-color="#37a6ef"/>
      <stop offset="100%" stop-color="#6fbe14"/>
    </linearGradient>
    <filter id="shadowSoft" x="-10%" y="-10%" width="120%" height="120%">
      <feDropShadow dx="0" dy="18" stdDeviation="22" flood-color="#02090f" flood-opacity="0.46"/>
    </filter>
  </defs>
  <rect width="1600" height="900" fill="url(#bg)"/>
  <g opacity="0.55">
    <circle cx="1420" cy="110" r="210" fill="rgba(26,62,88,0.38)"/>
    <circle cx="190" cy="770" r="250" fill="rgba(38,72,34,0.34)"/>
  </g>
  <g filter="url(#shadowSoft)">
    <rect x="128" y="106" width="1344" height="688" rx="54" fill="rgba(8,19,28,0.72)"/>
  </g>
  <rect x="182" y="156" width="1244" height="588" rx="42" fill="rgba(255,255,255,0.92)" stroke="rgba(168,195,216,0.1)" stroke-width="2"/><rect x="248" y="226" width="332" height="206" rx="30" fill="rgba(14,40,60,0.92)" stroke="rgba(168,195,216,0.1)" stroke-width="2"/><rect x="616" y="226" width="372" height="206" rx="30" fill="rgba(18,40,58,0.94)" stroke="rgba(168,195,216,0.1)" stroke-width="2"/><rect x="1024" y="226" width="332" height="206" rx="30" fill="rgba(28,57,29,0.9)" stroke="rgba(168,195,216,0.1)" stroke-width="2"/><rect x="248" y="468" width="372" height="206" rx="30" fill="rgba(18,40,58,0.94)" stroke="rgba(168,195,216,0.1)" stroke-width="2"/><rect x="656" y="468" width="286" height="206" rx="30" fill="rgba(15,34,49,0.94)" stroke="rgba(168,195,216,0.1)" stroke-width="2"/><rect x="978" y="468" width="378" height="206" rx="30" fill="rgba(18,40,58,0.94)" stroke="rgba(168,195,216,0.1)" stroke-width="2"/><circle cx="798" cy="328" r="58" fill="url(#primaryOrb)"/><path d="M776 296l58 32-58 32z" fill="rgba(255,255,255,0.92)"/><path d="M296 570c42-42 78-42 120 0s78 42 120 0 78-42 120 0" fill="none" stroke="url(#line)" stroke-width="14" stroke-linecap="round"/><circle cx="1132" cy="330" r="54" fill="url(#accentOrb)" opacity="0.92"/><circle cx="1132" cy="570" r="54" fill="url(#accentOrb)" opacity="0.92"/>
</svg>
