<svg xmlns="http://www.w3.org/2000/svg" width="1600" height="900" viewBox="0 0 1600 900" role="img" aria-hidden="true">
  <defs>
    <linearGradient id="bg" x1="0%" y1="0%" x2="100%" y2="100%">
      <stop offset="0%" stop-color="#eef8ff"/>
      <stop offset="55%" stop-color="#ffffff"/>
      <stop offset="100%" stop-color="#f4fbff"/>
    </linearGradient>
    <linearGradient id="primaryOrb" x1="20%" y1="20%" x2="85%" y2="85%">
      <stop offset="0%" stop-color="#2eaaf7"/>
      <stop offset="100%" stop-color="#0e78ca"/>
    </linearGradient>
    <linearGradient id="accentOrb" x1="0%" y1="0%" x2="100%" y2="100%">
      <stop offset="0%" stop-color="#7fcf29"/>
      <stop offset="100%" stop-color="#63a60b"/>
    </linearGradient>
    <linearGradient id="line" x1="0%" y1="0%" x2="100%" y2="0%">
      <stop offset="0%" stop-color="#2eaaf7"/>
      <stop offset="100%" stop-color="#7fcf29"/>
    </linearGradient>
    <filter id="shadowSoft" x="-10%" y="-10%" width="120%" height="120%">
      <feDropShadow dx="0" dy="18" stdDeviation="22" flood-color="#98b7cc" flood-opacity="0.18"/>
    </filter>
  </defs>
  <rect width="1600" height="900" fill="url(#bg)"/>
  <g opacity="0.55">
    <circle cx="1420" cy="110" r="210" fill="#d8efff"/>
    <circle cx="190" cy="770" r="250" fill="#ebf7da"/>
  </g>
  <g filter="url(#shadowSoft)">
    <rect x="128" y="106" width="1344" height="688" rx="54" fill="rgba(255,255,255,0.42)"/>
  </g>
  <rect x="176" y="154" width="1248" height="590" rx="42" fill="rgba(255,255,255,0.92)" stroke="rgba(17,52,76,0.08)" stroke-width="2"/><rect x="248" y="216" width="864" height="466" rx="34" fill="rgba(255,255,255,0.98)" stroke="rgba(17,52,76,0.08)" stroke-width="2"/><rect x="1144" y="216" width="208" height="466" rx="34" fill="rgba(247,251,253,0.96)" stroke="rgba(17,52,76,0.08)" stroke-width="2"/><rect x="248" y="216" width="864" height="282" rx="34" fill="url(#primaryOrb)" opacity="0.9"/><circle cx="680" cy="356" r="68" fill="rgba(255,255,255,0.94)"/><path d="M652 320l78 36-78 36z" fill="url(#primaryOrb)"/><rect x="310" y="532" width="744" height="92" rx="26" fill="rgba(241,248,252,0.96)" stroke="rgba(17,52,76,0.08)" stroke-width="2"/><rect x="350" y="568" width="520" height="16" rx="8" fill="rgba(17,52,76,0.1)"/><rect x="350" y="568" width="322" height="16" rx="8" fill="url(#line)"/><rect x="348" y="464" width="520" height="18" rx="9" fill="rgba(255,255,255,0.88)"/><rect x="348" y="500" width="436" height="14" rx="7" fill="rgba(255,255,255,0.72)"/><rect x="1182" y="284" width="132" height="80" rx="22" fill="rgba(255,255,255,0.98)" stroke="rgba(17,52,76,0.08)" stroke-width="2"/><rect x="1210" y="308" width="76" height="14" rx="7" fill="rgba(17,52,76,0.14)"/><rect x="1210" y="332" width="56" height="10" rx="5" fill="rgba(5,150,239,0.18)"/><rect x="1182" y="408" width="132" height="80" rx="22" fill="rgba(241,250,233,0.96)" stroke="rgba(17,52,76,0.08)" stroke-width="2"/><rect x="1210" y="432" width="76" height="14" rx="7" fill="rgba(17,52,76,0.14)"/><rect x="1210" y="456" width="56" height="10" rx="5" fill="rgba(5,150,239,0.18)"/><rect x="1182" y="532" width="132" height="80" rx="22" fill="rgba(255,255,255,0.98)" stroke="rgba(17,52,76,0.08)" stroke-width="2"/><rect x="1210" y="556" width="76" height="14" rx="7" fill="rgba(17,52,76,0.14)"/><rect x="1210" y="580" width="56" height="10" rx="5" fill="rgba(5,150,239,0.18)"/>
</svg>
